<?xml version="1.0" standalone="no"?>
<!DOCTYPE svg PUBLIC "-//W3C//DTD SVG 20010904//EN"
 "http://www.w3.org/TR/2001/REC-SVG-20010904/DTD/svg10.dtd">
<svg version="1.0" xmlns="http://www.w3.org/2000/svg"
 width="512.000000pt" height="512.000000pt" viewBox="0 0 512.000000 512.000000"
 preserveAspectRatio="xMidYMid meet">
<metadata>
Created by potrace 1.14, written by Peter Selinger 2001-2017
</metadata>
<g transform="translate(0.000000,512.000000) scale(0.100000,-0.100000)"
fill="#000000" stroke="none">
<path d="M1568 4395 c-2 -2 -24 -6 -50 -9 -63 -9 -165 -41 -241 -76 -225 -104
-407 -299 -494 -528 -52 -138 -62 -219 -63 -527 -1 -316 0 -320 70 -331 28 -5
40 -1 63 20 l27 25 1 263 c0 145 2 280 5 302 4 42 32 161 44 186 65 140 106
203 183 282 117 119 268 197 440 227 32 6 61 10 65 10 4 -1 124 -1 267 0 293
2 300 3 311 73 6 31 2 40 -22 63 l-28 26 -287 -2 c-158 0 -289 -2 -291 -4z"/>
<path d="M2947 4376 c-35 -32 -35 -74 -2 -110 l24 -26 263 -1 c145 0 272 -2
283 -3 335 -42 594 -252 689 -561 29 -95 34 -161 36 -423 0 -144 5 -273 10
-287 18 -48 83 -58 124 -20 l27 25 -2 284 c-1 298 -8 369 -50 495 -43 127
-136 278 -226 364 -117 112 -224 181 -348 226 -141 51 -209 59 -519 60 l-282
2 -27 -25z"/>
<path d="M2499 3546 c-59 -21 -90 -34 -204 -86 -22 -10 -101 -44 -175 -75 -74
-31 -159 -67 -188 -81 -29 -13 -55 -24 -57 -24 -6 0 -83 -34 -151 -66 -88 -43
-84 -8 -84 -682 0 -539 1 -590 18 -622 16 -32 51 -52 422 -240 l405 -204 75 0
75 0 402 202 c345 174 405 207 422 236 21 33 21 45 21 624 0 687 6 644 -94
691 -82 38 -740 320 -786 336 -34 12 -44 11 -101 -9z m418 -299 c183 -78 333
-144 333 -147 0 -3 -33 -21 -72 -40 -86 -40 -398 -190 -517 -249 -46 -22 -91
-41 -98 -41 -16 0 -40 11 -373 172 -118 57 -239 115 -267 128 -29 14 -53 27
-53 30 0 3 132 61 293 129 160 68 315 134 342 147 28 13 57 21 65 18 8 -2 165
-69 347 -147z m-892 -407 c61 -27 390 -185 425 -203 l25 -13 3 -487 2 -487
-340 170 -340 170 0 480 0 480 88 -44 c48 -24 110 -54 137 -66z m1295 -370 l0
-479 -340 -171 -340 -170 0 490 c0 275 4 490 9 490 5 0 84 36 177 81 93 45
225 108 294 140 69 33 141 68 160 79 19 11 36 20 38 20 1 0 2 -216 2 -480z"/>
<path d="M744 2173 l-25 -27 2 -288 c1 -271 4 -303 33 -433 17 -78 91 -230
151 -310 96 -129 238 -245 370 -304 28 -13 59 -27 70 -32 11 -5 56 -19 100
-30 71 -20 113 -22 392 -26 l312 -5 27 29 c21 23 25 34 20 63 -11 68 -17 70
-310 71 -283 0 -312 2 -399 24 -74 19 -202 72 -218 91 -6 8 -17 14 -23 14 -14
0 -135 104 -174 150 -66 78 -125 187 -156 285 -29 96 -35 163 -36 425 0 207
-4 268 -15 290 -25 49 -82 55 -121 13z"/>
<path d="M4267 2176 l-27 -25 -1 -263 c0 -145 -3 -283 -5 -308 -4 -45 -27
-137 -43 -175 -5 -11 -15 -35 -22 -54 -23 -60 -103 -174 -170 -239 -127 -126
-307 -212 -474 -227 -22 -2 -155 -4 -296 -4 l-256 -1 -27 -25 c-34 -31 -34
-73 -1 -109 l24 -26 274 0 c290 0 384 9 502 50 315 108 542 357 625 683 29
112 29 112 27 409 -2 329 -1 323 -68 334 -27 5 -40 1 -62 -20z"/>
</g>
</svg>
